<svg xmlns="http://www.w3.org/2000/svg" width="50mm" height="20mm" viewBox="0 0 25 10">
  <path fill="#008080" d="m 50.96842,70.13112 c 0,0.333504 0,0.667008 0,1.000513 -0.333504,0 -0.667008,0 -1.000512,0 0,0.666275 0,1.332552 0,1.998828 -0.666765,0 -1.333528,0 -2.000293,0 0,0.333504 0,0.667009 0,1.000513 0.666765,0 1.333528,0 2.000293,0 0,1.666544 0,3.333088 0,4.999633 0.333504,0 0.667008,0 1.000512,0 0,0.333504 0,0.667009 0,1.000513 0.99978,0 1.999561,0 2.999341,0 0,-0.333504 0,-0.667009 0,-1.000513 0.666765,0 1.333529,0 2.000294,0 0,0.333504 0,0.667009 0,1.000513 1.666545,0 3.333088,0 4.999633,0 0,-0.333504 0,-0.667009 0,-1.000513 0.666521,0 1.333041,0 1.999561,0 0,0.333504 0,0.667009 0,1.000513 1.00027,0 2.000537,0 3.000805,0 0,-0.333504 0,-0.667009 0,-1.000513 -0.666764,0 -1.333527,0 -2.000291,0 0,-0.99978 0,-1.999561 0,-2.999341 0.666764,0 1.333527,0 2.000291,0 0,0.99978 0,1.999561 0,2.999341 0.333262,0 0.666521,0 0.999781,0 0,0.333504 0,0.667009 0,1.000513 2.000048,0 4.000098,0 6.000147,0 0,-0.333504 0,-0.667009 0,-1.000513 -0.333503,0 -0.667009,0 -1.000513,0 0,-2.999828 0,-5.999658 0,-8.999487 -1.000025,0 -2.000049,0 -3.000074,0 0,0.333504 0,0.667008 0,1.000513 0.333261,0 0.66652,0 0.99978,0 0,2.666324 0,5.33265 0,7.998974 -0.666519,0 -1.333039,0 -1.99956,0 0,-1.666545 0,-3.333089 0,-4.999633 -0.33326,0 -0.66652,0 -0.99978,0 0,-0.333504 0,-0.667009 0,-1.000513 -1.333529,0 -2.667057,0 -4.000586,0 0,0.333504 0,0.667009 0,1.000513 1.00027,0 2.000537,0 3.000805,0 0,0.33326 0,0.666519 0,0.99978 -1.000268,0 -2.000535,0 -3.000805,0 0,0.333503 0,0.667008 0,1.000512 -0.333016,0 -0.666031,0 -0.999047,0 0,0.666765 0,1.333529 0,2.000294 -0.666766,0 -1.333528,0 -2.000293,0 0,0.333015 0,0.666032 0,0.999047 -1.00027,0 -2.000538,0 -3.000807,0 0,-0.99978 0,-1.999561 0,-2.999341 1.667034,0 3.334066,0 5.0011,0 0,-0.666765 0,-1.333528 0,-2.000292 -0.333506,0 -0.66701,0 -1.000514,0 0,-0.333504 0,-0.667009 0,-1.000513 -1.666545,0 -3.333088,0 -4.999633,0 0,0.333504 0,0.667009 0,1.000513 -0.33326,0 -0.666522,0 -0.999781,0 0,1.333529 0,2.667057 0,4.000586 -0.666765,0 -1.333528,0 -2.000293,0 0,0.333015 0,0.666032 0,0.999047 -0.333504,0 -0.667008,0 -1.000512,0 0,-1.666545 0,-3.333089 0,-4.999633 0.666764,0 1.333527,0 2.000292,0 0,-0.333504 0,-0.667009 0,-1.000513 -0.666765,0 -1.333528,0 -2.000292,0 0,-0.99978 0,-1.999561 0,-2.999341 -0.333017,0 -0.666032,0 -0.999049,0 z m 5.998682,3.999854 c 1.000269,0 2.000537,0 3.000807,0 0,0.33326 0,0.666519 0,0.99978 -1.00027,0 -2.000538,0 -3.000807,0 0,-0.333261 0,-0.66652 0,-0.99978 z" transform="translate(-47.967615,-70.13112)"/>
</svg>
